<?xml version="1.0" standalone="no"?>
<!DOCTYPE svg PUBLIC "-//W3C//DTD SVG 20010904//EN"
 "http://www.w3.org/TR/2001/REC-SVG-20010904/DTD/svg10.dtd">
<svg version="1.0" xmlns="http://www.w3.org/2000/svg"
 width="1024.000000pt" height="1024.000000pt" viewBox="0 0 1024.000000 1024.000000"
 preserveAspectRatio="xMidYMid meet">
<metadata>
Created by potrace 1.14, written by Peter Selinger 2001-2017
</metadata>
<g transform="translate(0.000000,1024.000000) scale(0.100000,-0.100000)"
fill="#000000" stroke="none">
<path d="M4858 10235 c-1 -1 -50 -6 -106 -9 -57 -4 -118 -9 -135 -11 -18 -3
-54 -7 -82 -9 -73 -6 -255 -34 -370 -57 -55 -11 -113 -23 -130 -25 -102 -18
-481 -125 -580 -164 -16 -6 -37 -13 -45 -15 -15 -3 -88 -30 -125 -45 -11 -5
-60 -25 -110 -45 -282 -114 -598 -281 -860 -453 -127 -84 -406 -288 -455 -334
-14 -13 -38 -34 -55 -46 -173 -133 -524 -500 -721 -753 -293 -375 -547 -818
-717 -1249 -103 -262 -187 -525 -232 -730 -26 -117 -37 -170 -55 -270 -18
-105 -20 -115 -26 -160 -3 -25 -7 -56 -10 -70 -2 -14 -6 -52 -9 -85 -3 -33 -8
-69 -10 -80 -26 -130 -26 -798 0 -1011 3 -22 7 -57 9 -79 14 -119 21 -166 52
-335 41 -227 36 -200 74 -350 49 -192 110 -380 187 -580 189 -490 459 -956
797 -1375 192 -239 459 -509 701 -710 187 -156 494 -372 668 -471 38 -21 90
-51 115 -67 73 -43 429 -217 444 -217 8 0 18 -4 23 -9 27 -24 544 -211 585
-211 9 0 20 -3 24 -7 3 -4 12 -8 19 -9 7 -2 46 -12 87 -23 66 -18 270 -64 340
-77 14 -3 59 -11 101 -19 42 -8 114 -19 160 -25 46 -5 95 -12 109 -14 26 -5
97 -12 235 -23 170 -15 767 -7 862 11 10 2 50 7 88 10 39 4 80 8 90 10 21 4
89 15 140 22 17 2 41 6 55 9 14 3 41 7 60 10 167 28 439 98 664 172 359 117
664 256 1031 467 171 99 437 287 625 441 238 195 564 520 701 700 13 17 26 32
30 35 16 13 210 277 284 390 325 487 608 1141 720 1663 24 110 54 258 60 295
3 17 7 44 10 60 8 48 26 176 31 222 2 25 6 63 9 85 26 231 27 847 1 1005 -3
14 -7 52 -10 85 -12 113 -32 243 -62 395 -14 69 -27 136 -30 150 -3 14 -19 77
-35 140 -17 63 -32 122 -34 130 -37 146 -153 466 -245 675 -59 133 -202 415
-231 457 -11 14 -19 29 -19 32 0 10 -166 273 -237 374 -56 80 -228 306 -258
338 -5 6 -35 40 -65 75 -173 201 -417 440 -600 588 -25 20 -47 39 -50 42 -3 3
-61 49 -130 101 -572 432 -1227 739 -1926 903 -178 42 -444 89 -564 100 -19 1
-64 6 -100 10 -36 4 -85 9 -110 11 -57 5 -647 14 -652 9z"/>
</g>
</svg>
